# MagicaVoxel @ Ephtracy

# group
g HomeOPEN_EXPORT-17

# material
mtllib HomeOPEN_EXPORT-17.mtl
usemtl palette

# normals
vn -1 0 0
vn 1 0 0
vn 0 0 1
vn 0 0 -1
vn 0 -1 0
vn 0 1 0

# texcoords
vt 0.724609 0.5
vt 0.732422 0.5

# verts
v -2.5 0 0.5
v -2.5 0 -0.5
v -2.5 1 0.5
v -2.5 1 -0.5
v -2.5 2 0.5
v -2.5 2 -0.5
v -2.5 5 0.5
v -2.5 5 -0.5
v 2.5 0 0.5
v 2.5 0 -0.5
v 2.5 1 0.5
v 2.5 1 -0.5
v 2.5 2 0.5
v 2.5 2 -0.5
v 2.5 5 0.5
v 2.5 5 -0.5
v -2.5 0 0.5
v -2.5 1 0.5
v -2.5 2 0.5
v -2.5 5 0.5
v 2.5 0 0.5
v 2.5 1 0.5
v 2.5 2 0.5
v 2.5 5 0.5
v -2.5 0 -0.5
v -2.5 1 -0.5
v -2.5 2 -0.5
v -2.5 5 -0.5
v 2.5 0 -0.5
v 2.5 1 -0.5
v 2.5 2 -0.5
v 2.5 5 -0.5
v -2.5 0 0.5
v 2.5 0 0.5
v -2.5 0 -0.5
v 2.5 0 -0.5
v -2.5 5 0.5
v 2.5 5 0.5
v -2.5 5 -0.5
v 2.5 5 -0.5

# faces
f 3/1/1 2/1/1 1/1/1
f 4/1/1 2/1/1 3/1/1
f 5/2/1 4/2/1 3/2/1
f 6/2/1 4/2/1 5/2/1
f 7/1/1 6/1/1 5/1/1
f 8/1/1 6/1/1 7/1/1
f 9/1/2 10/1/2 11/1/2
f 11/1/2 10/1/2 12/1/2
f 11/2/2 12/2/2 13/2/2
f 13/2/2 12/2/2 14/2/2
f 13/1/2 14/1/2 15/1/2
f 15/1/2 14/1/2 16/1/2
f 21/1/3 18/1/3 17/1/3
f 22/2/3 19/2/3 18/2/3
f 22/1/3 18/1/3 21/1/3
f 23/1/3 20/1/3 19/1/3
f 23/2/3 19/2/3 22/2/3
f 24/1/3 20/1/3 23/1/3
f 25/1/4 26/1/4 29/1/4
f 26/2/4 27/2/4 30/2/4
f 29/1/4 26/1/4 30/1/4
f 27/1/4 28/1/4 31/1/4
f 30/2/4 27/2/4 31/2/4
f 31/1/4 28/1/4 32/1/4
f 35/1/5 34/1/5 33/1/5
f 36/1/5 34/1/5 35/1/5
f 37/1/6 38/1/6 39/1/6
f 39/1/6 38/1/6 40/1/6
