# MagicaVoxel @ Ephtracy

# group
g HomeOPEN_EXPORT-16

# material
mtllib HomeOPEN_EXPORT-16.mtl
usemtl palette

# normals
vn -1 0 0
vn 1 0 0
vn 0 0 1
vn 0 0 -1
vn 0 -1 0
vn 0 1 0

# texcoords
vt 0.720703 0.5
vt 0.724609 0.5
vt 0.728516 0.5
vt 0.732422 0.5
vt 0.736328 0.5

# verts
v -2.5 0 2.5
v -2.5 0 1.5
v -2.5 0 0.5
v -2.5 0 -0.5
v -2.5 0 -1.5
v -2.5 0 -2.5
v -2.5 1 2.5
v -2.5 1 1.5
v -2.5 1 0.5
v -2.5 1 -0.5
v -2.5 1 -1.5
v -2.5 1 -2.5
v -2.5 2 2.5
v -2.5 2 1.5
v -2.5 2 0.5
v -2.5 2 -0.5
v -2.5 2 -1.5
v -2.5 2 -2.5
v -2.5 5 2.5
v -2.5 5 1.5
v -2.5 5 0.5
v -2.5 5 -0.5
v -2.5 5 -1.5
v -2.5 5 -2.5
v 2.5 0 2.5
v 2.5 0 1.5
v 2.5 0 0.5
v 2.5 0 -0.5
v 2.5 0 -1.5
v 2.5 0 -2.5
v 2.5 1 2.5
v 2.5 1 1.5
v 2.5 1 0.5
v 2.5 1 -0.5
v 2.5 1 -1.5
v 2.5 1 -2.5
v 2.5 2 2.5
v 2.5 2 1.5
v 2.5 2 0.5
v 2.5 2 -0.5
v 2.5 2 -1.5
v 2.5 2 -2.5
v 2.5 5 2.5
v 2.5 5 1.5
v 2.5 5 0.5
v 2.5 5 -0.5
v 2.5 5 -1.5
v 2.5 5 -2.5
v -2.5 0 2.5
v -2.5 1 2.5
v -2.5 2 2.5
v -2.5 5 2.5
v 2.5 0 2.5
v 2.5 1 2.5
v 2.5 2 2.5
v 2.5 5 2.5
v -2.5 0 -2.5
v -2.5 1 -2.5
v -2.5 2 -2.5
v -2.5 5 -2.5
v 2.5 0 -2.5
v 2.5 1 -2.5
v 2.5 2 -2.5
v 2.5 5 -2.5
v -2.5 0 2.5
v 2.5 0 2.5
v -2.5 0 1.5
v 2.5 0 1.5
v -2.5 0 0.5
v 2.5 0 0.5
v -2.5 0 -0.5
v -1.5 0 -0.5
v 1.5 0 -0.5
v 2.5 0 -0.5
v -2.5 0 -1.5
v -1.5 0 -1.5
v 1.5 0 -1.5
v 2.5 0 -1.5
v -2.5 0 -2.5
v 2.5 0 -2.5
v -2.5 5 2.5
v 2.5 5 2.5
v -2.5 5 1.5
v 2.5 5 1.5
v -2.5 5 0.5
v 2.5 5 0.5
v -2.5 5 -0.5
v 2.5 5 -0.5
v -2.5 5 -1.5
v 2.5 5 -1.5
v -2.5 5 -2.5
v 2.5 5 -2.5

# faces
f 7/5/1 2/5/1 1/5/1
f 8/1/1 3/1/1 2/1/1
f 8/5/1 2/5/1 7/5/1
f 9/3/1 4/3/1 3/3/1
f 9/1/1 3/1/1 8/1/1
f 10/5/1 5/5/1 4/5/1
f 10/3/1 4/3/1 9/3/1
f 11/2/1 6/2/1 5/2/1
f 11/5/1 5/5/1 10/5/1
f 12/2/1 6/2/1 11/2/1
f 13/4/1 10/4/1 9/4/1
f 13/4/1 8/4/1 7/4/1
f 13/4/1 12/4/1 11/4/1
f 13/4/1 11/4/1 10/4/1
f 13/4/1 9/4/1 8/4/1
f 14/4/1 12/4/1 13/4/1
f 15/4/1 12/4/1 14/4/1
f 16/4/1 12/4/1 15/4/1
f 17/4/1 12/4/1 16/4/1
f 18/4/1 12/4/1 17/4/1
f 19/5/1 14/5/1 13/5/1
f 20/1/1 15/1/1 14/1/1
f 20/5/1 14/5/1 19/5/1
f 21/3/1 16/3/1 15/3/1
f 21/1/1 15/1/1 20/1/1
f 22/5/1 17/5/1 16/5/1
f 22/3/1 16/3/1 21/3/1
f 23/2/1 18/2/1 17/2/1
f 23/5/1 17/5/1 22/5/1
f 24/2/1 18/2/1 23/2/1
f 25/5/2 26/5/2 31/5/2
f 26/1/2 27/1/2 32/1/2
f 31/5/2 26/5/2 32/5/2
f 27/3/2 28/3/2 33/3/2
f 32/1/2 27/1/2 33/1/2
f 28/5/2 29/5/2 34/5/2
f 33/3/2 28/3/2 34/3/2
f 29/2/2 30/2/2 35/2/2
f 34/5/2 29/5/2 35/5/2
f 35/2/2 30/2/2 36/2/2
f 33/4/2 34/4/2 37/4/2
f 31/4/2 32/4/2 37/4/2
f 35/4/2 36/4/2 37/4/2
f 34/4/2 35/4/2 37/4/2
f 32/4/2 33/4/2 37/4/2
f 37/4/2 36/4/2 38/4/2
f 38/4/2 36/4/2 39/4/2
f 39/4/2 36/4/2 40/4/2
f 40/4/2 36/4/2 41/4/2
f 41/4/2 36/4/2 42/4/2
f 37/5/2 38/5/2 43/5/2
f 38/1/2 39/1/2 44/1/2
f 43/5/2 38/5/2 44/5/2
f 39/3/2 40/3/2 45/3/2
f 44/1/2 39/1/2 45/1/2
f 40/5/2 41/5/2 46/5/2
f 45/3/2 40/3/2 46/3/2
f 41/2/2 42/2/2 47/2/2
f 46/5/2 41/5/2 47/5/2
f 47/2/2 42/2/2 48/2/2
f 53/5/3 50/5/3 49/5/3
f 54/4/3 51/4/3 50/4/3
f 54/5/3 50/5/3 53/5/3
f 55/5/3 52/5/3 51/5/3
f 55/4/3 51/4/3 54/4/3
f 56/5/3 52/5/3 55/5/3
f 57/2/4 58/2/4 61/2/4
f 58/4/4 59/4/4 62/4/4
f 61/2/4 58/2/4 62/2/4
f 59/2/4 60/2/4 63/2/4
f 62/4/4 59/4/4 63/4/4
f 63/2/4 60/2/4 64/2/4
f 67/5/5 66/5/5 65/5/5
f 68/5/5 66/5/5 67/5/5
f 69/1/5 68/1/5 67/1/5
f 70/1/5 68/1/5 69/1/5
f 71/3/5 70/3/5 69/3/5
f 72/3/5 70/3/5 71/3/5
f 73/3/5 70/3/5 72/3/5
f 74/3/5 70/3/5 73/3/5
f 75/5/5 72/5/5 71/5/5
f 76/2/5 73/2/5 72/2/5
f 76/5/5 72/5/5 75/5/5
f 77/5/5 74/5/5 73/5/5
f 77/2/5 73/2/5 76/2/5
f 78/5/5 74/5/5 77/5/5
f 79/2/5 76/2/5 75/2/5
f 79/2/5 77/2/5 76/2/5
f 79/2/5 78/2/5 77/2/5
f 80/2/5 78/2/5 79/2/5
f 81/5/6 82/5/6 83/5/6
f 83/5/6 82/5/6 84/5/6
f 83/1/6 84/1/6 85/1/6
f 85/1/6 84/1/6 86/1/6
f 85/3/6 86/3/6 87/3/6
f 87/3/6 86/3/6 88/3/6
f 87/5/6 88/5/6 89/5/6
f 89/5/6 88/5/6 90/5/6
f 89/2/6 90/2/6 91/2/6
f 91/2/6 90/2/6 92/2/6
