# MagicaVoxel @ Ephtracy

# group
g HomeOPEN_EXPORT-11

# material
mtllib HomeOPEN_EXPORT-11.mtl
usemtl palette

# normals
vn -1 0 0
vn 1 0 0
vn 0 0 1
vn 0 0 -1
vn 0 -1 0
vn 0 1 0

# texcoords
vt 0.751953 0.5
vt 0.787109 0.5
vt 0.814453 0.5

# verts
v -4 4 2
v -4 4 -2
v -4 5 2
v -4 5 -2
v -3 0 2
v -3 0 -2
v -3 1 2
v -3 1 -2
v -3 4 3
v -3 4 2
v -3 4 -2
v -3 4 -3
v -3 5 3
v -3 5 2
v -3 5 -2
v -3 5 -3
v -3 6 2
v -3 6 -2
v -2 4 4
v -2 4 3
v -2 4 -3
v -2 4 -4
v -2 5 4
v -2 5 3
v -2 5 2
v -2 5 -2
v -2 5 -3
v -2 5 -4
v -2 6 3
v -2 6 2
v -2 6 1
v -2 6 -2
v -2 6 -3
v -2 7 1
v -2 7 -2
v -1 1 1
v -1 1 -1
v -1 4 1
v -1 4 -1
v -1 6 2
v -1 6 1
v -1 7 2
v -1 7 1
v -1 7 -1
v -1 8 1
v -1 8 -1
v 1 1 1
v 1 1 -1
v 1 4 1
v 1 4 -1
v 1 6 2
v 1 6 1
v 1 6 -1
v 1 6 -2
v 1 7 2
v 1 7 1
v 1 7 -1
v 1 7 -2
v 1 8 1
v 1 8 -1
v 2 4 4
v 2 4 3
v 2 4 -3
v 2 4 -4
v 2 5 4
v 2 5 3
v 2 5 2
v 2 5 -2
v 2 5 -3
v 2 5 -4
v 2 6 3
v 2 6 2
v 2 6 1
v 2 6 -1
v 2 6 -2
v 2 6 -3
v 2 7 1
v 2 7 -1
v 3 0 2
v 3 0 -2
v 3 1 2
v 3 1 -2
v 3 4 3
v 3 4 2
v 3 4 -2
v 3 4 -3
v 3 5 3
v 3 5 2
v 3 5 -2
v 3 5 -3
v 3 6 2
v 3 6 -2
v 4 4 2
v 4 4 -2
v 4 5 2
v 4 5 -2
v -2 4 4
v -2 5 4
v 2 4 4
v 2 5 4
v -3 4 3
v -3 5 3
v -2 4 3
v -2 5 3
v -2 6 3
v 2 4 3
v 2 5 3
v 2 6 3
v 3 4 3
v 3 5 3
v -4 4 2
v -4 5 2
v -3 0 2
v -3 1 2
v -3 4 2
v -3 5 2
v -3 6 2
v -2 5 2
v -2 6 2
v -1 6 2
v -1 7 2
v 1 6 2
v 1 7 2
v 2 5 2
v 2 6 2
v 3 0 2
v 3 1 2
v 3 4 2
v 3 5 2
v 3 6 2
v 4 4 2
v 4 5 2
v -2 6 1
v -2 7 1
v -1 1 1
v -1 4 1
v -1 6 1
v -1 7 1
v -1 8 1
v 1 1 1
v 1 4 1
v 1 6 1
v 1 7 1
v 1 8 1
v 2 6 1
v 2 7 1
v -1 1 -1
v -1 4 -1
v -1 7 -1
v -1 8 -1
v 1 1 -1
v 1 4 -1
v 1 6 -1
v 1 7 -1
v 1 8 -1
v 2 6 -1
v 2 7 -1
v -4 4 -2
v -4 5 -2
v -3 0 -2
v -3 1 -2
v -3 4 -2
v -3 5 -2
v -3 6 -2
v -2 5 -2
v -2 6 -2
v -2 7 -2
v 1 6 -2
v 1 7 -2
v 2 5 -2
v 2 6 -2
v 3 0 -2
v 3 1 -2
v 3 4 -2
v 3 5 -2
v 3 6 -2
v 4 4 -2
v 4 5 -2
v -3 4 -3
v -3 5 -3
v -2 4 -3
v -2 5 -3
v -2 6 -3
v 2 4 -3
v 2 5 -3
v 2 6 -3
v 3 4 -3
v 3 5 -3
v -2 4 -4
v -2 5 -4
v 2 4 -4
v 2 5 -4
v -3 0 2
v 3 0 2
v -3 0 -2
v 3 0 -2
v -2 4 4
v 2 4 4
v -3 4 3
v -2 4 3
v 2 4 3
v 3 4 3
v -4 4 2
v -3 4 2
v 3 4 2
v 4 4 2
v -1 4 1
v 1 4 1
v -1 4 -1
v 1 4 -1
v -4 4 -2
v -3 4 -2
v 3 4 -2
v 4 4 -2
v -3 4 -3
v -2 4 -3
v 2 4 -3
v 3 4 -3
v -2 4 -4
v 2 4 -4
v -3 1 2
v 3 1 2
v -1 1 1
v 1 1 1
v -1 1 -1
v 1 1 -1
v -3 1 -2
v 3 1 -2
v -2 5 4
v 2 5 4
v -3 5 3
v -2 5 3
v 2 5 3
v 3 5 3
v -4 5 2
v -3 5 2
v -2 5 2
v 2 5 2
v 3 5 2
v 4 5 2
v -4 5 -2
v -3 5 -2
v -2 5 -2
v 2 5 -2
v 3 5 -2
v 4 5 -2
v -3 5 -3
v -2 5 -3
v 2 5 -3
v 3 5 -3
v -2 5 -4
v 2 5 -4
v -2 6 3
v 2 6 3
v -3 6 2
v -2 6 2
v -1 6 2
v 1 6 2
v 2 6 2
v 3 6 2
v -2 6 1
v -1 6 1
v 1 6 1
v 2 6 1
v 1 6 -1
v 2 6 -1
v -3 6 -2
v -2 6 -2
v 1 6 -2
v 2 6 -2
v 3 6 -2
v -2 6 -3
v 2 6 -3
v -1 7 2
v 1 7 2
v -2 7 1
v -1 7 1
v 1 7 1
v 2 7 1
v -1 7 -1
v 1 7 -1
v 2 7 -1
v -2 7 -2
v 1 7 -2
v -1 8 1
v 1 8 1
v -1 8 -1
v 1 8 -1

# faces
f 3/2/1 2/2/1 1/2/1
f 4/2/1 2/2/1 3/2/1
f 7/3/1 6/3/1 5/3/1
f 8/3/1 6/3/1 7/3/1
f 13/2/1 10/2/1 9/2/1
f 14/2/1 10/2/1 13/2/1
f 15/2/1 12/2/1 11/2/1
f 16/2/1 12/2/1 15/2/1
f 17/2/1 15/2/1 14/2/1
f 18/2/1 15/2/1 17/2/1
f 23/2/1 20/2/1 19/2/1
f 24/2/1 20/2/1 23/2/1
f 27/2/1 22/2/1 21/2/1
f 28/2/1 22/2/1 27/2/1
f 29/2/1 25/2/1 24/2/1
f 30/2/1 25/2/1 29/2/1
f 32/2/1 27/2/1 26/2/1
f 33/2/1 27/2/1 32/2/1
f 34/2/1 32/2/1 31/2/1
f 35/2/1 32/2/1 34/2/1
f 38/1/1 37/1/1 36/1/1
f 39/1/1 37/1/1 38/1/1
f 42/2/1 41/2/1 40/2/1
f 43/2/1 41/2/1 42/2/1
f 45/2/1 44/2/1 43/2/1
f 46/2/1 44/2/1 45/2/1
f 47/1/2 48/1/2 49/1/2
f 49/1/2 48/1/2 50/1/2
f 51/2/2 52/2/2 55/2/2
f 55/2/2 52/2/2 56/2/2
f 53/2/2 54/2/2 57/2/2
f 57/2/2 54/2/2 58/2/2
f 56/2/2 57/2/2 59/2/2
f 59/2/2 57/2/2 60/2/2
f 61/2/2 62/2/2 65/2/2
f 65/2/2 62/2/2 66/2/2
f 63/2/2 64/2/2 69/2/2
f 69/2/2 64/2/2 70/2/2
f 66/2/2 67/2/2 71/2/2
f 71/2/2 67/2/2 72/2/2
f 68/2/2 69/2/2 75/2/2
f 75/2/2 69/2/2 76/2/2
f 73/2/2 74/2/2 77/2/2
f 77/2/2 74/2/2 78/2/2
f 79/3/2 80/3/2 81/3/2
f 81/3/2 80/3/2 82/3/2
f 83/2/2 84/2/2 87/2/2
f 87/2/2 84/2/2 88/2/2
f 85/2/2 86/2/2 89/2/2
f 89/2/2 86/2/2 90/2/2
f 88/2/2 89/2/2 91/2/2
f 91/2/2 89/2/2 92/2/2
f 93/2/2 94/2/2 95/2/2
f 95/2/2 94/2/2 96/2/2
f 99/2/3 98/2/3 97/2/3
f 100/2/3 98/2/3 99/2/3
f 103/2/3 102/2/3 101/2/3
f 104/2/3 102/2/3 103/2/3
f 107/2/3 105/2/3 104/2/3
f 108/2/3 105/2/3 107/2/3
f 109/2/3 107/2/3 106/2/3
f 110/2/3 107/2/3 109/2/3
f 115/2/3 112/2/3 111/2/3
f 116/2/3 112/2/3 115/2/3
f 118/2/3 117/2/3 116/2/3
f 119/2/3 117/2/3 118/2/3
f 122/2/3 121/2/3 120/2/3
f 123/2/3 121/2/3 122/2/3
f 126/3/3 114/3/3 113/3/3
f 127/3/3 114/3/3 126/3/3
f 129/2/3 125/2/3 124/2/3
f 130/2/3 125/2/3 129/2/3
f 131/2/3 129/2/3 128/2/3
f 132/2/3 129/2/3 131/2/3
f 137/2/3 134/2/3 133/2/3
f 138/2/3 134/2/3 137/2/3
f 140/1/3 136/1/3 135/1/3
f 141/1/3 136/1/3 140/1/3
f 143/2/3 139/2/3 138/2/3
f 144/2/3 139/2/3 143/2/3
f 145/2/3 143/2/3 142/2/3
f 146/2/3 143/2/3 145/2/3
f 147/1/4 148/1/4 151/1/4
f 151/1/4 148/1/4 152/1/4
f 149/2/4 150/2/4 154/2/4
f 154/2/4 150/2/4 155/2/4
f 153/2/4 154/2/4 156/2/4
f 156/2/4 154/2/4 157/2/4
f 158/2/4 159/2/4 162/2/4
f 162/2/4 159/2/4 163/2/4
f 163/2/4 164/2/4 165/2/4
f 165/2/4 164/2/4 166/2/4
f 166/2/4 167/2/4 168/2/4
f 168/2/4 167/2/4 169/2/4
f 160/3/4 161/3/4 172/3/4
f 172/3/4 161/3/4 173/3/4
f 170/2/4 171/2/4 175/2/4
f 175/2/4 171/2/4 176/2/4
f 174/2/4 175/2/4 177/2/4
f 177/2/4 175/2/4 178/2/4
f 179/2/4 180/2/4 181/2/4
f 181/2/4 180/2/4 182/2/4
f 182/2/4 183/2/4 185/2/4
f 185/2/4 183/2/4 186/2/4
f 184/2/4 185/2/4 187/2/4
f 187/2/4 185/2/4 188/2/4
f 189/2/4 190/2/4 191/2/4
f 191/2/4 190/2/4 192/2/4
f 195/3/5 194/3/5 193/3/5
f 196/3/5 194/3/5 195/3/5
f 200/2/5 198/2/5 197/2/5
f 201/2/5 198/2/5 200/2/5
f 204/2/5 200/2/5 199/2/5
f 204/2/5 202/2/5 201/2/5
f 204/2/5 201/2/5 200/2/5
f 205/2/5 202/2/5 204/2/5
f 207/2/5 204/2/5 203/2/5
f 207/2/5 206/2/5 205/2/5
f 207/2/5 205/2/5 204/2/5
f 208/2/5 206/2/5 207/2/5
f 209/2/5 207/2/5 203/2/5
f 210/2/5 206/2/5 208/2/5
f 211/2/5 209/2/5 203/2/5
f 211/2/5 210/2/5 209/2/5
f 212/2/5 210/2/5 211/2/5
f 213/2/5 206/2/5 210/2/5
f 213/2/5 210/2/5 212/2/5
f 214/2/5 206/2/5 213/2/5
f 215/2/5 213/2/5 212/2/5
f 216/2/5 213/2/5 215/2/5
f 217/2/5 213/2/5 216/2/5
f 218/2/5 213/2/5 217/2/5
f 219/2/5 217/2/5 216/2/5
f 220/2/5 217/2/5 219/2/5
f 221/3/6 222/3/6 223/3/6
f 223/3/6 222/3/6 224/3/6
f 221/3/6 223/3/6 225/3/6
f 224/3/6 222/3/6 226/3/6
f 221/3/6 225/3/6 227/3/6
f 225/3/6 226/3/6 227/3/6
f 226/3/6 222/3/6 228/3/6
f 227/3/6 226/3/6 228/3/6
f 229/2/6 230/2/6 232/2/6
f 232/2/6 230/2/6 233/2/6
f 231/2/6 232/2/6 236/2/6
f 236/2/6 232/2/6 237/2/6
f 233/2/6 234/2/6 238/2/6
f 238/2/6 234/2/6 239/2/6
f 235/2/6 236/2/6 241/2/6
f 241/2/6 236/2/6 242/2/6
f 239/2/6 240/2/6 245/2/6
f 245/2/6 240/2/6 246/2/6
f 242/2/6 243/2/6 247/2/6
f 247/2/6 243/2/6 248/2/6
f 244/2/6 245/2/6 249/2/6
f 249/2/6 245/2/6 250/2/6
f 248/2/6 249/2/6 251/2/6
f 251/2/6 249/2/6 252/2/6
f 253/2/6 254/2/6 256/2/6
f 256/2/6 254/2/6 257/2/6
f 257/2/6 254/2/6 258/2/6
f 258/2/6 254/2/6 259/2/6
f 255/2/6 256/2/6 261/2/6
f 256/2/6 257/2/6 261/2/6
f 261/2/6 257/2/6 262/2/6
f 259/2/6 260/2/6 263/2/6
f 258/2/6 259/2/6 263/2/6
f 263/2/6 260/2/6 264/2/6
f 264/2/6 260/2/6 266/2/6
f 255/2/6 261/2/6 267/2/6
f 267/2/6 261/2/6 268/2/6
f 265/2/6 266/2/6 269/2/6
f 266/2/6 260/2/6 270/2/6
f 269/2/6 266/2/6 270/2/6
f 270/2/6 260/2/6 271/2/6
f 268/2/6 269/2/6 272/2/6
f 269/2/6 270/2/6 272/2/6
f 272/2/6 270/2/6 273/2/6
f 274/2/6 275/2/6 277/2/6
f 277/2/6 275/2/6 278/2/6
f 276/2/6 277/2/6 280/2/6
f 278/2/6 279/2/6 281/2/6
f 281/2/6 279/2/6 282/2/6
f 276/2/6 280/2/6 283/2/6
f 280/2/6 281/2/6 283/2/6
f 283/2/6 281/2/6 284/2/6
f 285/2/6 286/2/6 287/2/6
f 287/2/6 286/2/6 288/2/6
