# MagicaVoxel @ Ephtracy

# group
g HomeOPEN_EXPORT-14

# material
mtllib HomeOPEN_EXPORT-14.mtl
usemtl palette

# normals
vn -1 0 0
vn 1 0 0
vn 0 0 1
vn 0 0 -1
vn 0 -1 0
vn 0 1 0

# texcoords
vt 0.783203 0.5
vt 0.787109 0.5
vt 0.802734 0.5

# verts
v -1.5 0 1.5
v -1.5 0 -1.5
v -1.5 2 1.5
v -1.5 2 0.5
v -1.5 2 -1.5
v -1.5 3 1.5
v -1.5 3 0.5
v -1.5 3 -0.5
v -1.5 3 -1.5
v -1.5 4 -0.5
v -1.5 4 -1.5
v -1.5 5 0.5
v -1.5 5 -0.5
v -1.5 6 1.5
v -1.5 6 0.5
v -1.5 6 -0.5
v -1.5 6 -1.5
v 1.5 0 1.5
v 1.5 0 -1.5
v 1.5 2 1.5
v 1.5 2 0.5
v 1.5 2 -0.5
v 1.5 2 -1.5
v 1.5 3 1.5
v 1.5 3 0.5
v 1.5 3 -0.5
v 1.5 3 -1.5
v 1.5 4 1.5
v 1.5 4 0.5
v 1.5 5 1.5
v 1.5 5 0.5
v 1.5 5 -0.5
v 1.5 5 -1.5
v 1.5 6 1.5
v 1.5 6 -0.5
v 1.5 6 -1.5
v -1.5 0 1.5
v -1.5 2 1.5
v -1.5 3 1.5
v -1.5 6 1.5
v -0.5 2 1.5
v -0.5 3 1.5
v 0.5 2 1.5
v 0.5 3 1.5
v 0.5 4 1.5
v 0.5 5 1.5
v 1.5 0 1.5
v 1.5 2 1.5
v 1.5 3 1.5
v 1.5 4 1.5
v 1.5 5 1.5
v 1.5 6 1.5
v -1.5 0 -1.5
v -1.5 2 -1.5
v -1.5 3 -1.5
v -1.5 4 -1.5
v -1.5 6 -1.5
v -0.5 3 -1.5
v -0.5 4 -1.5
v 0.5 2 -1.5
v 0.5 3 -1.5
v 0.5 5 -1.5
v 0.5 6 -1.5
v 1.5 0 -1.5
v 1.5 2 -1.5
v 1.5 3 -1.5
v 1.5 5 -1.5
v 1.5 6 -1.5
v -1.5 0 1.5
v 1.5 0 1.5
v -1.5 0 -1.5
v 1.5 0 -1.5
v -1.5 6 1.5
v 1.5 6 1.5
v -1.5 6 0.5
v -0.5 6 0.5
v -1.5 6 -0.5
v -0.5 6 -0.5
v 0.5 6 -0.5
v 1.5 6 -0.5
v -1.5 6 -1.5
v 0.5 6 -1.5
v 1.5 6 -1.5

# faces
f 3/1/1 2/1/1 1/1/1
f 4/1/1 2/1/1 3/1/1
f 5/1/1 2/1/1 4/1/1
f 6/3/1 4/3/1 3/3/1
f 7/2/1 5/2/1 4/2/1
f 7/3/1 4/3/1 6/3/1
f 8/2/1 5/2/1 7/2/1
f 9/2/1 5/2/1 8/2/1
f 10/2/1 7/2/1 6/2/1
f 10/2/1 8/2/1 7/2/1
f 10/3/1 9/3/1 8/3/1
f 11/3/1 9/3/1 10/3/1
f 12/2/1 10/2/1 6/2/1
f 12/2/1 11/2/1 10/2/1
f 13/2/1 11/2/1 12/2/1
f 14/2/1 12/2/1 6/2/1
f 15/3/1 13/3/1 12/3/1
f 15/2/1 12/2/1 14/2/1
f 16/2/1 11/2/1 13/2/1
f 16/3/1 13/3/1 15/3/1
f 17/2/1 11/2/1 16/2/1
f 18/1/2 19/1/2 20/1/2
f 20/1/2 19/1/2 21/1/2
f 21/1/2 19/1/2 22/1/2
f 22/1/2 19/1/2 23/1/2
f 20/3/2 21/3/2 24/3/2
f 21/2/2 22/2/2 25/2/2
f 24/3/2 21/3/2 25/3/2
f 22/3/2 23/3/2 26/3/2
f 25/2/2 22/2/2 26/2/2
f 26/3/2 23/3/2 27/3/2
f 24/2/2 25/2/2 28/2/2
f 25/2/2 26/2/2 28/2/2
f 26/2/2 27/2/2 28/2/2
f 28/2/2 27/2/2 29/2/2
f 28/3/2 29/3/2 30/3/2
f 29/2/2 27/2/2 31/2/2
f 30/3/2 29/3/2 31/3/2
f 31/2/2 27/2/2 32/2/2
f 32/2/2 27/2/2 33/2/2
f 30/2/2 31/2/2 34/2/2
f 31/2/2 32/2/2 34/2/2
f 32/3/2 33/3/2 35/3/2
f 34/2/2 32/2/2 35/2/2
f 35/3/2 33/3/2 36/3/2
f 41/1/3 38/1/3 37/1/3
f 41/3/3 39/3/3 38/3/3
f 42/2/3 40/2/3 39/2/3
f 42/3/3 39/3/3 41/3/3
f 43/1/3 41/1/3 37/1/3
f 43/2/3 42/2/3 41/2/3
f 44/2/3 40/2/3 42/2/3
f 44/2/3 42/2/3 43/2/3
f 45/2/3 40/2/3 44/2/3
f 46/2/3 40/2/3 45/2/3
f 47/1/3 43/1/3 37/1/3
f 48/3/3 44/3/3 43/3/3
f 48/1/3 43/1/3 47/1/3
f 49/2/3 45/2/3 44/2/3
f 49/3/3 44/3/3 48/3/3
f 50/3/3 46/3/3 45/3/3
f 50/2/3 45/2/3 49/2/3
f 51/2/3 40/2/3 46/2/3
f 51/3/3 46/3/3 50/3/3
f 52/2/3 40/2/3 51/2/3
f 54/2/4 55/2/4 58/2/4
f 55/3/4 56/3/4 58/3/4
f 56/2/4 57/2/4 59/2/4
f 58/3/4 56/3/4 59/3/4
f 53/1/4 54/1/4 60/1/4
f 54/2/4 58/2/4 60/2/4
f 58/2/4 59/2/4 60/2/4
f 60/2/4 59/2/4 61/2/4
f 59/2/4 57/2/4 62/2/4
f 61/2/4 59/2/4 62/2/4
f 62/2/4 57/2/4 63/2/4
f 53/1/4 60/1/4 64/1/4
f 60/3/4 61/3/4 65/3/4
f 64/1/4 60/1/4 65/1/4
f 61/2/4 62/2/4 66/2/4
f 65/3/4 61/3/4 66/3/4
f 62/3/4 63/3/4 67/3/4
f 66/2/4 62/2/4 67/2/4
f 67/3/4 63/3/4 68/3/4
f 71/1/5 70/1/5 69/1/5
f 72/1/5 70/1/5 71/1/5
f 73/2/6 74/2/6 75/2/6
f 75/2/6 74/2/6 76/2/6
f 75/3/6 76/3/6 77/3/6
f 76/2/6 74/2/6 78/2/6
f 77/3/6 76/3/6 78/3/6
f 78/2/6 74/2/6 79/2/6
f 79/2/6 74/2/6 80/2/6
f 77/2/6 78/2/6 81/2/6
f 78/2/6 79/2/6 81/2/6
f 79/3/6 80/3/6 82/3/6
f 81/2/6 79/2/6 82/2/6
f 82/3/6 80/3/6 83/3/6
