# MagicaVoxel @ Ephtracy

# group
g HomeOPEN_EXPORT-12

# material
mtllib HomeOPEN_EXPORT-12.mtl
usemtl palette

# normals
vn -1 0 0
vn 1 0 0
vn 0 0 1
vn 0 0 -1
vn 0 -1 0
vn 0 1 0

# texcoords
vt 0.751953 0.5
vt 0.787109 0.5
vt 0.791016 0.5
vt 0.794922 0.5
vt 0.814453 0.5

# verts
v -4 5 -0
v -4 5 -1
v -4 6 -0
v -4 6 -1
v -3 0 3
v -3 0 -3
v -3 1 3
v -3 1 -3
v -3 4 2
v -3 4 1
v -3 4 -0
v -3 4 -1
v -3 5 3
v -3 5 2
v -3 5 1
v -3 5 -0
v -3 5 -1
v -3 5 -3
v -3 6 3
v -3 6 2
v -3 6 1
v -3 6 -0
v -3 6 -1
v -3 6 -2
v -3 6 -3
v -3 7 2
v -3 7 -0
v -3 7 -1
v -3 7 -2
v -2 4 3
v -2 4 2
v -2 4 1
v -2 4 -0
v -2 4 -1
v -2 4 -2
v -2 5 3
v -2 5 2
v -2 5 1
v -2 5 -0
v -2 5 -1
v -2 5 -2
v -2 6 -0
v -2 6 -1
v -2 6 -2
v -2 6 -3
v -2 7 1
v -2 7 -0
v -2 7 -1
v -2 7 -2
v -2 7 -3
v -2 8 1
v -2 8 -1
v -1 1 1
v -1 1 -1
v -1 4 1
v -1 4 -1
v -1 4 -2
v -1 4 -3
v -1 5 4
v -1 5 3
v -1 5 -2
v -1 5 -3
v -1 6 4
v -1 6 3
v -1 6 2
v -1 7 3
v -1 7 2
v -1 7 1
v -1 7 -1
v -1 7 -2
v -1 8 2
v -1 8 1
v -1 8 -1
v -1 8 -2
v 0 7 -2
v 0 7 -3
v 0 8 -2
v 0 8 -3
v 3 6 1
v 3 6 -0
v 3 7 1
v 3 7 -0
v -1 4 3
v -1 4 2
v -1 5 3
v -1 5 2
v 0 4 -2
v 0 4 -3
v 0 5 -2
v 0 5 -3
v 1 1 1
v 1 1 -1
v 1 4 2
v 1 4 1
v 1 4 -1
v 1 4 -2
v 1 5 2
v 1 5 1
v 1 5 -1
v 1 5 -2
v 1 5 -3
v 1 6 -2
v 1 6 -3
v 1 7 2
v 1 7 1
v 1 7 -1
v 1 7 -2
v 1 8 2
v 1 8 1
v 1 8 -1
v 1 8 -2
v 2 4 1
v 2 4 -1
v 2 5 4
v 2 5 3
v 2 5 1
v 2 5 -1
v 2 6 4
v 2 6 3
v 2 6 1
v 2 6 -1
v 2 7 3
v 2 7 1
v 2 7 -1
v 2 7 -2
v 2 7 -3
v 2 8 1
v 2 8 -1
v 2 8 -2
v 2 8 -3
v 3 0 3
v 3 0 -3
v 3 1 3
v 3 1 -3
v 3 5 3
v 3 5 1
v 3 5 -1
v 3 5 -2
v 3 6 3
v 3 6 1
v 3 6 -0
v 3 6 -1
v 3 6 -2
v 3 6 -3
v 3 7 -1
v 3 7 -3
v 4 6 1
v 4 6 -0
v 4 7 1
v 4 7 -0
v -1 5 4
v -1 6 4
v 2 5 4
v 2 6 4
v -3 0 3
v -3 1 3
v -3 5 3
v -3 6 3
v -2 4 3
v -2 5 3
v -1 4 3
v -1 5 3
v -1 6 3
v -1 7 3
v 2 5 3
v 2 6 3
v 2 7 3
v 3 0 3
v 3 1 3
v 3 5 3
v 3 6 3
v -3 4 2
v -3 5 2
v -3 6 2
v -3 7 2
v -2 4 2
v -2 5 2
v -1 4 2
v -1 5 2
v -1 6 2
v -1 7 2
v -1 8 2
v 1 4 2
v 1 5 2
v 1 7 2
v 1 8 2
v -2 7 1
v -2 8 1
v -1 1 1
v -1 4 1
v -1 7 1
v -1 8 1
v 1 1 1
v 1 4 1
v 1 5 1
v 1 7 1
v 1 8 1
v 2 4 1
v 2 5 1
v 2 7 1
v 2 8 1
v 3 6 1
v 3 7 1
v 4 6 1
v 4 7 1
v -4 5 -0
v -4 6 -0
v -3 4 -0
v -3 5 -0
v -3 6 -0
v -2 4 -0
v -2 5 -0
v -3 6 -1
v -3 7 -1
v -2 6 -1
v -2 7 -1
v 2 6 -1
v 2 7 -1
v 3 6 -1
v 3 7 -1
v 1 7 -2
v 1 8 -2
v 2 7 -2
v 2 8 -2
v -3 4 1
v -3 5 1
v -2 4 1
v -2 5 1
v -3 6 -0
v -3 7 -0
v -2 6 -0
v -2 7 -0
v 3 6 -0
v 3 7 -0
v 4 6 -0
v 4 7 -0
v -4 5 -1
v -4 6 -1
v -3 4 -1
v -3 5 -1
v -3 6 -1
v -2 4 -1
v -2 5 -1
v -2 7 -1
v -2 8 -1
v -1 1 -1
v -1 4 -1
v -1 7 -1
v -1 8 -1
v 1 1 -1
v 1 4 -1
v 1 5 -1
v 1 7 -1
v 1 8 -1
v 2 4 -1
v 2 5 -1
v 2 7 -1
v 2 8 -1
v -3 6 -2
v -3 7 -2
v -2 4 -2
v -2 5 -2
v -2 6 -2
v -2 7 -2
v -1 4 -2
v -1 5 -2
v -1 7 -2
v -1 8 -2
v 0 4 -2
v 0 5 -2
v 0 7 -2
v 0 8 -2
v 1 4 -2
v 1 5 -2
v 1 6 -2
v 2 5 -2
v 2 6 -2
v 3 5 -2
v 3 6 -2
v -3 0 -3
v -3 1 -3
v -3 5 -3
v -3 6 -3
v -2 6 -3
v -2 7 -3
v -1 4 -3
v -1 5 -3
v -1 6 -3
v 0 4 -3
v 0 5 -3
v 0 7 -3
v 0 8 -3
v 1 5 -3
v 1 6 -3
v 2 7 -3
v 2 8 -3
v 3 0 -3
v 3 1 -3
v 3 6 -3
v 3 7 -3
v -3 0 3
v 3 0 3
v -3 0 -3
v 3 0 -3
v -2 4 3
v -1 4 3
v -3 4 2
v -2 4 2
v -1 4 2
v 1 4 2
v -3 4 1
v -2 4 1
v -1 4 1
v 1 4 1
v 2 4 1
v -3 4 -0
v -2 4 -0
v -3 4 -1
v -2 4 -1
v -1 4 -1
v 1 4 -1
v 2 4 -1
v -2 4 -2
v -1 4 -2
v 0 4 -2
v 1 4 -2
v -1 4 -3
v 0 4 -3
v -1 5 4
v 2 5 4
v -3 5 3
v -2 5 3
v -1 5 3
v 1 5 3
v 2 5 3
v 3 5 3
v -3 5 2
v -2 5 2
v -1 5 2
v 1 5 2
v 2 5 2
v -3 5 1
v -2 5 1
v 1 5 1
v 2 5 1
v 3 5 1
v -4 5 -0
v -3 5 -0
v -2 5 -0
v -4 5 -1
v -3 5 -1
v -2 5 -1
v 1 5 -1
v 2 5 -1
v 3 5 -1
v -2 5 -2
v -1 5 -2
v 0 5 -2
v 1 5 -2
v 2 5 -2
v 3 5 -2
v -3 5 -3
v -1 5 -3
v 0 5 -3
v 1 5 -3
v 3 6 1
v 4 6 1
v 3 6 -0
v 4 6 -0
v 1 6 -2
v 2 6 -2
v 3 6 -2
v 1 6 -3
v 3 6 -3
v -3 1 3
v 3 1 3
v -1 1 1
v 1 1 1
v -1 1 -1
v 1 1 -1
v -3 1 -3
v 3 1 -3
v -1 6 4
v 2 6 4
v -3 6 3
v -1 6 3
v 2 6 3
v 3 6 3
v -3 6 2
v -1 6 2
v 2 6 1
v 3 6 1
v -4 6 -0
v -3 6 -0
v -2 6 -0
v 3 6 -0
v -4 6 -1
v -3 6 -1
v -2 6 -1
v 2 6 -1
v 3 6 -1
v -3 6 -2
v -2 6 -2
v -3 6 -3
v -2 6 -3
v -1 7 3
v 2 7 3
v -3 7 2
v -1 7 2
v 1 7 2
v -2 7 1
v -1 7 1
v 1 7 1
v 2 7 1
v 3 7 1
v 4 7 1
v -3 7 -0
v -2 7 -0
v 3 7 -0
v 4 7 -0
v -3 7 -1
v -2 7 -1
v -1 7 -1
v 1 7 -1
v 2 7 -1
v 3 7 -1
v -3 7 -2
v -2 7 -2
v -1 7 -2
v 0 7 -2
v 1 7 -2
v 2 7 -2
v -2 7 -3
v 0 7 -3
v 2 7 -3
v 3 7 -3
v -1 8 2
v 1 8 2
v -2 8 1
v -1 8 1
v 1 8 1
v 2 8 1
v -2 8 -1
v -1 8 -1
v 1 8 -1
v 2 8 -1
v -1 8 -2
v 0 8 -2
v 1 8 -2
v 2 8 -2
v 0 8 -3
v 2 8 -3

# faces
f 3/2/1 2/2/1 1/2/1
f 4/2/1 2/2/1 3/2/1
f 7/5/1 6/5/1 5/5/1
f 8/5/1 6/5/1 7/5/1
f 14/2/1 10/2/1 9/2/1
f 15/2/1 10/2/1 14/2/1
f 16/2/1 12/2/1 11/2/1
f 17/2/1 12/2/1 16/2/1
f 19/2/1 15/2/1 14/2/1
f 19/2/1 14/2/1 13/2/1
f 20/2/1 15/2/1 19/2/1
f 21/4/1 16/4/1 15/4/1
f 21/2/1 15/2/1 20/2/1
f 22/4/1 16/4/1 21/4/1
f 23/2/1 18/2/1 17/2/1
f 24/2/1 18/2/1 23/2/1
f 25/2/1 18/2/1 24/2/1
f 26/2/1 22/2/1 21/2/1
f 26/2/1 21/2/1 20/2/1
f 27/2/1 22/2/1 26/2/1
f 28/2/1 24/2/1 23/2/1
f 29/2/1 24/2/1 28/2/1
f 36/2/1 31/2/1 30/2/1
f 37/2/1 31/2/1 36/2/1
f 38/2/1 33/2/1 32/2/1
f 39/2/1 33/2/1 38/2/1
f 40/2/1 35/2/1 34/2/1
f 41/2/1 35/2/1 40/2/1
f 47/3/1 43/3/1 42/3/1
f 48/3/1 43/3/1 47/3/1
f 49/2/1 45/2/1 44/2/1
f 50/2/1 45/2/1 49/2/1
f 51/2/1 48/2/1 47/2/1
f 51/2/1 47/2/1 46/2/1
f 52/2/1 48/2/1 51/2/1
f 55/1/1 54/1/1 53/1/1
f 56/1/1 54/1/1 55/1/1
f 61/2/1 58/2/1 57/2/1
f 62/2/1 58/2/1 61/2/1
f 63/2/1 60/2/1 59/2/1
f 64/2/1 60/2/1 63/2/1
f 66/2/1 65/2/1 64/2/1
f 67/2/1 65/2/1 66/2/1
f 71/2/1 68/2/1 67/2/1
f 72/2/1 68/2/1 71/2/1
f 73/2/1 70/2/1 69/2/1
f 74/2/1 70/2/1 73/2/1
f 77/2/1 76/2/1 75/2/1
f 78/2/1 76/2/1 77/2/1
f 81/2/1 80/2/1 79/2/1
f 82/2/1 80/2/1 81/2/1
f 83/2/2 84/2/2 85/2/2
f 85/2/2 84/2/2 86/2/2
f 87/2/2 88/2/2 89/2/2
f 89/2/2 88/2/2 90/2/2
f 91/1/2 92/1/2 94/1/2
f 94/1/2 92/1/2 95/1/2
f 93/2/2 94/2/2 97/2/2
f 97/2/2 94/2/2 98/2/2
f 95/2/2 96/2/2 99/2/2
f 99/2/2 96/2/2 100/2/2
f 100/4/2 101/4/2 102/4/2
f 102/4/2 101/4/2 103/4/2
f 104/2/2 105/2/2 108/2/2
f 108/2/2 105/2/2 109/2/2
f 106/2/2 107/2/2 110/2/2
f 110/2/2 107/2/2 111/2/2
f 112/2/2 113/2/2 116/2/2
f 116/2/2 113/2/2 117/2/2
f 114/2/2 115/2/2 118/2/2
f 118/2/2 115/2/2 119/2/2
f 119/2/2 120/2/2 122/2/2
f 120/3/2 121/3/2 123/3/2
f 122/2/2 120/2/2 123/2/2
f 123/3/2 121/3/2 124/3/2
f 123/2/2 124/2/2 127/2/2
f 127/2/2 124/2/2 128/2/2
f 125/2/2 126/2/2 129/2/2
f 129/2/2 126/2/2 130/2/2
f 131/5/2 132/5/2 133/5/2
f 133/5/2 132/5/2 134/5/2
f 135/2/2 136/2/2 139/2/2
f 136/4/2 137/4/2 140/4/2
f 139/2/2 136/2/2 140/2/2
f 140/4/2 137/4/2 141/4/2
f 137/2/2 138/2/2 142/2/2
f 141/4/2 137/4/2 142/4/2
f 142/2/2 138/2/2 143/2/2
f 143/2/2 144/2/2 145/2/2
f 142/2/2 143/2/2 145/2/2
f 145/2/2 144/2/2 146/2/2
f 147/2/2 148/2/2 149/2/2
f 149/2/2 148/2/2 150/2/2
f 153/2/3 152/2/3 151/2/3
f 154/2/3 152/2/3 153/2/3
f 160/2/3 158/2/3 157/2/3
f 161/2/3 160/2/3 159/2/3
f 162/2/3 158/2/3 160/2/3
f 162/2/3 160/2/3 161/2/3
f 163/2/3 158/2/3 162/2/3
f 166/2/3 164/2/3 163/2/3
f 167/2/3 164/2/3 166/2/3
f 168/5/3 156/5/3 155/5/3
f 169/5/3 156/5/3 168/5/3
f 170/2/3 166/2/3 165/2/3
f 171/2/3 166/2/3 170/2/3
f 176/2/3 173/2/3 172/2/3
f 177/2/3 173/2/3 176/2/3
f 180/2/3 175/2/3 174/2/3
f 181/2/3 175/2/3 180/2/3
f 183/2/3 179/2/3 178/2/3
f 184/2/3 179/2/3 183/2/3
f 185/2/3 182/2/3 181/2/3
f 186/2/3 182/2/3 185/2/3
f 191/2/3 188/2/3 187/2/3
f 192/2/3 188/2/3 191/2/3
f 193/1/3 190/1/3 189/1/3
f 194/1/3 190/1/3 193/1/3
f 198/2/3 195/2/3 194/2/3
f 199/2/3 195/2/3 198/2/3
f 200/2/3 197/2/3 196/2/3
f 201/2/3 197/2/3 200/2/3
f 204/2/3 203/2/3 202/2/3
f 205/2/3 203/2/3 204/2/3
f 209/2/3 207/2/3 206/2/3
f 210/2/3 207/2/3 209/2/3
f 211/2/3 209/2/3 208/2/3
f 212/2/3 209/2/3 211/2/3
f 215/2/3 214/2/3 213/2/3
f 216/2/3 214/2/3 215/2/3
f 219/2/3 218/2/3 217/2/3
f 220/2/3 218/2/3 219/2/3
f 223/2/3 222/2/3 221/2/3
f 224/2/3 222/2/3 223/2/3
f 225/2/4 226/2/4 227/2/4
f 227/2/4 226/2/4 228/2/4
f 229/2/4 230/2/4 231/2/4
f 231/2/4 230/2/4 232/2/4
f 233/2/4 234/2/4 235/2/4
f 235/2/4 234/2/4 236/2/4
f 237/2/4 238/2/4 240/2/4
f 240/2/4 238/2/4 241/2/4
f 239/2/4 240/2/4 242/2/4
f 242/2/4 240/2/4 243/2/4
f 244/2/4 245/2/4 248/2/4
f 248/2/4 245/2/4 249/2/4
f 246/1/4 247/1/4 250/1/4
f 250/1/4 247/1/4 251/1/4
f 251/2/4 252/2/4 255/2/4
f 255/2/4 252/2/4 256/2/4
f 253/2/4 254/2/4 257/2/4
f 257/2/4 254/2/4 258/2/4
f 259/2/4 260/2/4 263/2/4
f 263/2/4 260/2/4 264/2/4
f 261/2/4 262/2/4 265/2/4
f 265/2/4 262/2/4 266/2/4
f 267/2/4 268/2/4 271/2/4
f 271/2/4 268/2/4 272/2/4
f 269/2/4 270/2/4 273/2/4
f 273/2/4 270/2/4 274/2/4
f 274/4/4 275/4/4 276/4/4
f 276/4/4 275/4/4 277/4/4
f 276/2/4 277/2/4 278/2/4
f 278/2/4 277/2/4 279/2/4
f 282/2/4 283/2/4 284/2/4
f 282/2/4 284/2/4 287/2/4
f 284/2/4 285/2/4 287/2/4
f 287/2/4 285/2/4 288/2/4
f 286/2/4 287/2/4 289/2/4
f 287/4/4 288/4/4 290/4/4
f 289/2/4 287/2/4 290/2/4
f 288/2/4 285/2/4 291/2/4
f 290/4/4 288/4/4 293/4/4
f 291/2/4 292/2/4 294/2/4
f 293/4/4 288/4/4 294/4/4
f 288/2/4 291/2/4 294/2/4
f 294/2/4 292/2/4 295/2/4
f 295/2/4 292/2/4 296/2/4
f 280/5/4 281/5/4 297/5/4
f 297/5/4 281/5/4 298/5/4
f 294/2/4 295/2/4 299/2/4
f 299/2/4 295/2/4 300/2/4
f 303/5/5 302/5/5 301/5/5
f 304/5/5 302/5/5 303/5/5
f 308/2/5 306/2/5 305/2/5
f 309/2/5 306/2/5 308/2/5
f 311/2/5 308/2/5 307/2/5
f 311/2/5 310/2/5 309/2/5
f 311/2/5 309/2/5 308/2/5
f 312/2/5 310/2/5 311/2/5
f 313/2/5 310/2/5 312/2/5
f 314/2/5 310/2/5 313/2/5
f 317/2/5 313/2/5 312/2/5
f 318/2/5 317/2/5 316/2/5
f 319/2/5 313/2/5 317/2/5
f 319/2/5 317/2/5 318/2/5
f 320/2/5 313/2/5 319/2/5
f 321/2/5 315/2/5 314/2/5
f 322/2/5 315/2/5 321/2/5
f 323/2/5 320/2/5 319/2/5
f 323/2/5 321/2/5 320/2/5
f 324/2/5 321/2/5 323/2/5
f 325/2/5 321/2/5 324/2/5
f 326/2/5 321/2/5 325/2/5
f 327/2/5 325/2/5 324/2/5
f 328/2/5 325/2/5 327/2/5
f 333/2/5 330/2/5 329/2/5
f 334/2/5 330/2/5 333/2/5
f 335/2/5 330/2/5 334/2/5
f 337/2/5 332/2/5 331/2/5
f 338/2/5 332/2/5 337/2/5
f 339/4/5 334/4/5 333/4/5
f 340/2/5 336/2/5 335/2/5
f 340/4/5 334/4/5 339/4/5
f 340/2/5 335/2/5 334/2/5
f 341/2/5 336/2/5 340/2/5
f 344/4/5 341/4/5 340/4/5
f 345/2/5 336/2/5 341/2/5
f 345/4/5 341/4/5 344/4/5
f 346/2/5 336/2/5 345/2/5
f 348/4/5 343/4/5 342/4/5
f 349/4/5 343/4/5 348/4/5
f 350/2/5 348/2/5 347/2/5
f 351/2/5 348/2/5 350/2/5
f 354/4/5 346/4/5 345/4/5
f 355/4/5 346/4/5 354/4/5
f 356/2/5 352/2/5 351/2/5
f 359/4/5 354/4/5 353/4/5
f 360/2/5 355/2/5 354/2/5
f 360/4/5 354/4/5 359/4/5
f 361/2/5 355/2/5 360/2/5
f 362/2/5 357/2/5 356/2/5
f 362/2/5 356/2/5 351/2/5
f 363/2/5 357/2/5 362/2/5
f 364/4/5 359/4/5 358/4/5
f 365/4/5 359/4/5 364/4/5
f 368/2/5 367/2/5 366/2/5
f 369/2/5 367/2/5 368/2/5
f 373/2/5 371/2/5 370/2/5
f 373/2/5 372/2/5 371/2/5
f 374/2/5 372/2/5 373/2/5
f 375/5/6 376/5/6 377/5/6
f 377/5/6 376/5/6 378/5/6
f 375/5/6 377/5/6 379/5/6
f 378/5/6 376/5/6 380/5/6
f 375/5/6 379/5/6 381/5/6
f 379/5/6 380/5/6 381/5/6
f 380/5/6 376/5/6 382/5/6
f 381/5/6 380/5/6 382/5/6
f 383/2/6 384/2/6 386/2/6
f 386/2/6 384/2/6 387/2/6
f 385/2/6 386/2/6 389/2/6
f 389/2/6 386/2/6 390/2/6
f 387/2/6 388/2/6 391/2/6
f 391/2/6 388/2/6 392/2/6
f 391/4/6 392/4/6 396/4/6
f 393/2/6 394/2/6 397/2/6
f 394/4/6 395/4/6 398/4/6
f 397/2/6 394/2/6 398/2/6
f 398/4/6 395/4/6 399/4/6
f 391/4/6 396/4/6 400/4/6
f 400/4/6 396/4/6 401/4/6
f 402/2/6 403/2/6 404/2/6
f 404/2/6 403/2/6 405/2/6
f 406/2/6 407/2/6 409/2/6
f 409/2/6 407/2/6 410/2/6
f 408/2/6 409/2/6 411/2/6
f 411/2/6 409/2/6 412/2/6
f 410/2/6 407/2/6 413/2/6
f 413/2/6 407/2/6 414/2/6
f 408/2/6 411/2/6 417/2/6
f 417/2/6 411/2/6 418/2/6
f 415/2/6 416/2/6 419/2/6
f 419/2/6 416/2/6 420/2/6
f 421/2/6 422/2/6 427/2/6
f 422/2/6 423/2/6 427/2/6
f 427/2/6 423/2/6 428/2/6
f 428/2/6 423/2/6 429/2/6
f 425/2/6 426/2/6 431/2/6
f 424/2/6 425/2/6 431/2/6
f 431/2/6 426/2/6 432/2/6
f 429/2/6 430/2/6 433/2/6
f 428/2/6 429/2/6 433/2/6
f 433/2/6 430/2/6 434/2/6
f 432/2/6 426/2/6 435/2/6
f 435/2/6 426/2/6 436/2/6
f 437/2/6 438/2/6 440/2/6
f 440/2/6 438/2/6 441/2/6
f 439/2/6 440/2/6 443/2/6
f 441/2/6 442/2/6 443/2/6
f 440/2/6 441/2/6 443/2/6
f 443/2/6 442/2/6 444/2/6
f 444/2/6 442/2/6 445/2/6
f 445/2/6 442/2/6 446/2/6
f 444/2/6 445/2/6 447/2/6
f 447/2/6 445/2/6 448/2/6
f 448/2/6 445/2/6 449/2/6
f 449/2/6 450/2/6 451/2/6
f 448/2/6 449/2/6 451/2/6
f 451/2/6 450/2/6 452/2/6
