# MagicaVoxel @ Ephtracy

# group
g HomeOPEN_EXPORT-28

# material
mtllib HomeOPEN_EXPORT-28.mtl
usemtl palette

# normals
vn -1 0 0
vn 1 0 0
vn 0 0 1
vn 0 0 -1
vn 0 -1 0
vn 0 1 0

# texcoords
vt 0.845703 0.5
vt 0.970703 0.5
vt 0.978516 0.5

# verts
v -24 0 10.5
v -24 0 9.5
v -24 1 9.5
v -24 1 -11.5
v -24 8 10.5
v -24 8 9.5
v -24 8 -11.5
v -19 3 11.5
v -19 3 10.5
v -19 5 11.5
v -19 5 10.5
v 17 3 11.5
v 17 3 10.5
v 17 5 11.5
v 17 5 10.5
v 23 2 9.5
v 23 2 -10.5
v 23 8 9.5
v 23 8 -10.5
v -23 2 9.5
v -23 2 -10.5
v -23 8 9.5
v -23 8 -10.5
v -17 3 11.5
v -17 3 10.5
v -17 5 11.5
v -17 5 10.5
v 19 3 11.5
v 19 3 10.5
v 19 5 11.5
v 19 5 10.5
v 24 0 10.5
v 24 0 9.5
v 24 1 9.5
v 24 1 -11.5
v 24 8 10.5
v 24 8 9.5
v 24 8 -11.5
v -19 3 11.5
v -19 5 11.5
v -17 3 11.5
v -17 5 11.5
v 17 3 11.5
v 17 5 11.5
v 19 3 11.5
v 19 5 11.5
v -24 0 10.5
v -24 8 10.5
v -19 3 10.5
v -19 5 10.5
v -17 3 10.5
v -17 5 10.5
v 17 3 10.5
v 17 5 10.5
v 19 3 10.5
v 19 5 10.5
v 24 0 10.5
v 24 8 10.5
v -23 2 -10.5
v -23 8 -10.5
v 23 2 -10.5
v 23 8 -10.5
v -24 0 9.5
v -24 1 9.5
v -23 2 9.5
v -23 8 9.5
v -19 3 9.5
v -19 5 9.5
v -17 3 9.5
v -17 5 9.5
v 17 3 9.5
v 17 5 9.5
v 19 3 9.5
v 19 5 9.5
v 23 2 9.5
v 23 8 9.5
v 24 0 9.5
v 24 1 9.5
v -24 1 -11.5
v -24 8 -11.5
v 24 1 -11.5
v 24 8 -11.5
v -24 0 10.5
v 24 0 10.5
v -24 0 9.5
v 24 0 9.5
v -24 1 9.5
v 24 1 9.5
v -24 1 -11.5
v 24 1 -11.5
v -19 3 11.5
v -17 3 11.5
v 17 3 11.5
v 19 3 11.5
v -19 3 10.5
v -17 3 10.5
v 17 3 10.5
v 19 3 10.5
v -23 2 9.5
v 23 2 9.5
v -23 2 -10.5
v 23 2 -10.5
v -19 5 11.5
v -17 5 11.5
v 17 5 11.5
v 19 5 11.5
v -19 5 10.5
v -17 5 10.5
v 17 5 10.5
v 19 5 10.5
v -24 8 10.5
v 24 8 10.5
v -24 8 9.5
v -23 8 9.5
v 23 8 9.5
v 24 8 9.5
v -23 8 -10.5
v 23 8 -10.5
v -24 8 -11.5
v 24 8 -11.5

# faces
f 3/2/1 2/2/1 1/2/1
f 5/2/1 3/2/1 1/2/1
f 6/1/1 4/1/1 3/1/1
f 6/2/1 3/2/1 5/2/1
f 7/1/1 4/1/1 6/1/1
f 10/3/1 9/3/1 8/3/1
f 11/3/1 9/3/1 10/3/1
f 14/3/1 13/3/1 12/3/1
f 15/3/1 13/3/1 14/3/1
f 18/1/1 17/1/1 16/1/1
f 19/1/1 17/1/1 18/1/1
f 20/1/2 21/1/2 22/1/2
f 22/1/2 21/1/2 23/1/2
f 24/3/2 25/3/2 26/3/2
f 26/3/2 25/3/2 27/3/2
f 28/3/2 29/3/2 30/3/2
f 30/3/2 29/3/2 31/3/2
f 32/2/2 33/2/2 34/2/2
f 32/2/2 34/2/2 36/2/2
f 34/1/2 35/1/2 37/1/2
f 36/2/2 34/2/2 37/2/2
f 37/1/2 35/1/2 38/1/2
f 41/3/3 40/3/3 39/3/3
f 42/3/3 40/3/3 41/3/3
f 45/3/3 44/3/3 43/3/3
f 46/3/3 44/3/3 45/3/3
f 49/2/3 48/2/3 47/2/3
f 50/2/3 48/2/3 49/2/3
f 51/2/3 49/2/3 47/2/3
f 52/2/3 48/2/3 50/2/3
f 53/2/3 51/2/3 47/2/3
f 53/2/3 52/2/3 51/2/3
f 54/2/3 48/2/3 52/2/3
f 54/2/3 52/2/3 53/2/3
f 55/2/3 53/2/3 47/2/3
f 56/2/3 48/2/3 54/2/3
f 57/2/3 55/2/3 47/2/3
f 57/2/3 56/2/3 55/2/3
f 58/2/3 48/2/3 56/2/3
f 58/2/3 56/2/3 57/2/3
f 61/1/3 60/1/3 59/1/3
f 62/1/3 60/1/3 61/1/3
f 65/2/4 66/2/4 67/2/4
f 67/2/4 66/2/4 68/2/4
f 65/2/4 67/2/4 69/2/4
f 67/3/4 68/3/4 69/3/4
f 68/2/4 66/2/4 70/2/4
f 69/3/4 68/3/4 70/3/4
f 65/2/4 69/2/4 71/2/4
f 69/2/4 70/2/4 71/2/4
f 70/2/4 66/2/4 72/2/4
f 71/2/4 70/2/4 72/2/4
f 65/2/4 71/2/4 73/2/4
f 71/3/4 72/3/4 73/3/4
f 72/2/4 66/2/4 74/2/4
f 73/3/4 72/3/4 74/3/4
f 65/2/4 73/2/4 75/2/4
f 73/2/4 74/2/4 75/2/4
f 74/2/4 66/2/4 76/2/4
f 75/2/4 74/2/4 76/2/4
f 63/2/4 64/2/4 77/2/4
f 77/2/4 64/2/4 78/2/4
f 79/1/4 80/1/4 81/1/4
f 81/1/4 80/1/4 82/1/4
f 85/2/5 84/2/5 83/2/5
f 86/2/5 84/2/5 85/2/5
f 89/1/5 88/1/5 87/1/5
f 90/1/5 88/1/5 89/1/5
f 95/3/5 92/3/5 91/3/5
f 96/3/5 92/3/5 95/3/5
f 97/3/5 94/3/5 93/3/5
f 98/3/5 94/3/5 97/3/5
f 99/1/6 100/1/6 101/1/6
f 101/1/6 100/1/6 102/1/6
f 103/3/6 104/3/6 107/3/6
f 107/3/6 104/3/6 108/3/6
f 105/3/6 106/3/6 109/3/6
f 109/3/6 106/3/6 110/3/6
f 111/2/6 112/2/6 113/2/6
f 113/2/6 112/2/6 114/2/6
f 114/2/6 112/2/6 115/2/6
f 115/2/6 112/2/6 116/2/6
f 113/1/6 114/1/6 117/1/6
f 115/1/6 116/1/6 118/1/6
f 113/1/6 117/1/6 119/1/6
f 117/1/6 118/1/6 119/1/6
f 118/1/6 116/1/6 120/1/6
f 119/1/6 118/1/6 120/1/6
