# MagicaVoxel @ Ephtracy

# group
g v2.0-0

# material
mtllib v2.0-0.mtl
usemtl palette

# normals
vn -1 0 0
vn 1 0 0
vn 0 0 1
vn 0 0 -1
vn 0 -1 0
vn 0 1 0

# texcoords
vt 0.845703 0.5
vt 0.849609 0.5

# verts
v -5 2 1.5
v -5 2 -1.5
v -5 3 1.5
v -5 3 -1.5
v -4 0 7.5
v -4 0 -7.5
v -4 2 1.5
v -4 2 -1.5
v -4 3 1.5
v -4 3 -1.5
v -4 4 7.5
v -4 4 -7.5
v -4 6 7.5
v -4 6 -7.5
v 4 1 5.5
v 4 1 -5.5
v 4 4 5.5
v 4 4 -5.5
v -3 0 7.5
v -3 0 6.5
v -3 0 -6.5
v -3 0 -7.5
v -3 1 5.5
v -3 1 -5.5
v -3 2 1.5
v -3 2 -1.5
v -3 3 1.5
v -3 3 -1.5
v -3 4 7.5
v -3 4 6.5
v -3 4 5.5
v -3 4 -5.5
v -3 4 -6.5
v -3 4 -7.5
v -3 6 7.5
v -3 6 -7.5
v 5 0 6.5
v 5 0 -6.5
v 5 4 6.5
v 5 4 -6.5
v -4 0 7.5
v -4 4 7.5
v -4 6 7.5
v -3 0 7.5
v -3 4 7.5
v -3 6 7.5
v -3 0 6.5
v -3 4 6.5
v 5 0 6.5
v 5 4 6.5
v -5 2 1.5
v -5 3 1.5
v -4 2 1.5
v -4 3 1.5
v -3 1 -5.5
v -3 4 -5.5
v 4 1 -5.5
v 4 4 -5.5
v -3 1 5.5
v -3 4 5.5
v 4 1 5.5
v 4 4 5.5
v -5 2 -1.5
v -5 3 -1.5
v -4 2 -1.5
v -4 3 -1.5
v -3 0 -6.5
v -3 4 -6.5
v 5 0 -6.5
v 5 4 -6.5
v -4 0 -7.5
v -4 4 -7.5
v -4 6 -7.5
v -3 0 -7.5
v -3 4 -7.5
v -3 6 -7.5
v -4 0 7.5
v -3 0 7.5
v -3 0 6.5
v 5 0 6.5
v -3 0 -6.5
v 5 0 -6.5
v -4 0 -7.5
v -3 0 -7.5
v -5 2 1.5
v -4 2 1.5
v -5 2 -1.5
v -4 2 -1.5
v -3 1 5.5
v 4 1 5.5
v -3 1 -5.5
v 4 1 -5.5
v -5 3 1.5
v -4 3 1.5
v -5 3 -1.5
v -4 3 -1.5
v -3 4 6.5
v 5 4 6.5
v -3 4 5.5
v 4 4 5.5
v -3 4 -5.5
v 4 4 -5.5
v -3 4 -6.5
v 5 4 -6.5
v -4 6 7.5
v -3 6 7.5
v -4 6 -7.5
v -3 6 -7.5

# faces
f 3/2/1 2/2/1 1/2/1
f 4/2/1 2/2/1 3/2/1
f 7/1/1 6/1/1 5/1/1
f 8/1/1 6/1/1 7/1/1
f 9/1/1 7/1/1 5/1/1
f 10/1/1 6/1/1 8/1/1
f 11/1/1 9/1/1 5/1/1
f 11/1/1 10/1/1 9/1/1
f 12/1/1 6/1/1 10/1/1
f 12/1/1 10/1/1 11/1/1
f 13/2/1 12/2/1 11/2/1
f 14/2/1 12/2/1 13/2/1
f 17/1/1 16/1/1 15/1/1
f 18/1/1 16/1/1 17/1/1
f 23/1/2 24/1/2 25/1/2
f 25/1/2 24/1/2 26/1/2
f 23/1/2 25/1/2 27/1/2
f 25/2/2 26/2/2 27/2/2
f 26/1/2 24/1/2 28/1/2
f 27/2/2 26/2/2 28/2/2
f 19/1/2 20/1/2 29/1/2
f 29/1/2 20/1/2 30/1/2
f 23/1/2 27/1/2 31/1/2
f 27/1/2 28/1/2 31/1/2
f 28/1/2 24/1/2 32/1/2
f 31/1/2 28/1/2 32/1/2
f 21/1/2 22/1/2 33/1/2
f 33/1/2 22/1/2 34/1/2
f 30/2/2 31/2/2 35/2/2
f 31/2/2 32/2/2 35/2/2
f 33/2/2 34/2/2 35/2/2
f 32/2/2 33/2/2 35/2/2
f 29/2/2 30/2/2 35/2/2
f 35/2/2 34/2/2 36/2/2
f 37/1/2 38/1/2 39/1/2
f 39/1/2 38/1/2 40/1/2
f 44/1/3 42/1/3 41/1/3
f 45/2/3 43/2/3 42/2/3
f 45/1/3 42/1/3 44/1/3
f 46/2/3 43/2/3 45/2/3
f 49/1/3 48/1/3 47/1/3
f 50/1/3 48/1/3 49/1/3
f 53/2/3 52/2/3 51/2/3
f 54/2/3 52/2/3 53/2/3
f 57/1/3 56/1/3 55/1/3
f 58/1/3 56/1/3 57/1/3
f 59/1/4 60/1/4 61/1/4
f 61/1/4 60/1/4 62/1/4
f 63/2/4 64/2/4 65/2/4
f 65/2/4 64/2/4 66/2/4
f 67/1/4 68/1/4 69/1/4
f 69/1/4 68/1/4 70/1/4
f 71/1/4 72/1/4 74/1/4
f 72/2/4 73/2/4 75/2/4
f 74/1/4 72/1/4 75/1/4
f 75/2/4 73/2/4 76/2/4
f 79/1/5 78/1/5 77/1/5
f 81/1/5 79/1/5 77/1/5
f 81/1/5 80/1/5 79/1/5
f 82/1/5 80/1/5 81/1/5
f 83/1/5 81/1/5 77/1/5
f 84/1/5 81/1/5 83/1/5
f 87/2/5 86/2/5 85/2/5
f 88/2/5 86/2/5 87/2/5
f 89/1/6 90/1/6 91/1/6
f 91/1/6 90/1/6 92/1/6
f 93/2/6 94/2/6 95/2/6
f 95/2/6 94/2/6 96/2/6
f 97/1/6 98/1/6 99/1/6
f 99/1/6 98/1/6 100/1/6
f 100/1/6 98/1/6 102/1/6
f 101/1/6 102/1/6 103/1/6
f 102/1/6 98/1/6 104/1/6
f 103/1/6 102/1/6 104/1/6
f 105/2/6 106/2/6 107/2/6
f 107/2/6 106/2/6 108/2/6
